<?xml version="1.0" encoding="utf-8"?>
<!-- Generator: Adobe Illustrator 15.1.0, SVG Export Plug-In . SVG Version: 6.00 Build 0)  -->
<!DOCTYPE svg PUBLIC "-//W3C//DTD SVG 1.1//EN" "http://www.w3.org/Graphics/SVG/1.1/DTD/svg11.dtd">
<svg version="1.1" id="Layer_1" xmlns="http://www.w3.org/2000/svg" xmlns:xlink="http://www.w3.org/1999/xlink" x="0px" y="0px"
	 width="188px" height="187px" viewBox="0 0 188 187" enable-background="new 0 0 188 187" xml:space="preserve">
<g>
	<polygon fill="#ED1C24" stroke="#ED1C24" stroke-miterlimit="10" points="58.543,177.192 9.806,128.166 9.806,58.834 58.543,9.808 
		127.464,9.808 176.202,58.834 176.202,128.166 127.464,177.192 	"/>
	<g>
		<path fill="#FFFFFF" stroke="#FFFFFF" stroke-miterlimit="10" d="M46.322,71.265V45.736l33.186,33.665L66.959,92.025
			L46.322,71.265z M46.322,113.906l33.465-33.803v25.528l-33.465,33.662V113.906z M72.955,45.317l32.767,33.66H80.204L46.74,45.317
			H72.955z M72.955,139.716H46.74l33.186-33.382l12.829,13.043L72.955,139.716z M106.139,79.541v25.949H80.345V79.541H106.139z
			 M113.529,139.716l-32.769-33.663h25.378v0.559l0.419-0.277l33.184,33.382H113.529z M113.529,45.317h26.212l-33.184,33.381
			L93.729,65.655L113.529,45.317z M140.161,71.265l-33.463,33.804V79.401l33.463-33.665V71.265z M140.161,113.906v25.388
			l-33.186-33.384l12.549-12.904L140.161,113.906z"/>
	</g>
</g>
</svg>
